# xmcd
# 
# Track frame offsets:
#     183
#     15813
#     34458
#     54185
#     73608
# 
# Disc length: 1292
# 
# Revision: 5
# Processed by: cddbd v1.5.2PL0 Copyright (c) Steve Scherf et al.
# Submitted via: fre:ac v1.0.31
# 
DISCID=34050a05
DTITLE=Portishead - Sour Times (Single)
DYEAR=1994
DGENRE=Trip-Hop
TTITLE0=Sour Times (Edit)
TTITLE1=Sour Sour Times
TTITLE2=Lot More
TTITLE3=Sheared Times
TTITLE4=Airbus Reconstruction
EXTD=
EXTT0=
EXTT1=
EXTT2=
EXTT3=
EXTT4=
PLAYORDER=
